<?xml version="1.0" encoding="UTF-8"?>
<svg id="Logo" xmlns="http://www.w3.org/2000/svg" viewBox="0 0 600 600">
  <defs>
    <style>
      .cls-1 {
        fill: #964d8b;
        stroke-width: 0px;
      }
    </style>
  </defs>
  <g>
    <g>
      <path class="cls-1" d="m251.98,326.32c-5.26-7.77-13.88-12.84-23.63-12.84-16.03,0-29.02,13.68-29.02,30.55s12.99,30.56,29.02,30.56,28.03-12.68,28.95-28.69l-27.34-4.06,22.02-15.52Z"/>
      <path class="cls-1" d="m394.35,326.32c-5.26-7.77-13.88-12.84-23.64-12.84-16.03,0-29.01,13.68-29.01,30.55s12.98,30.56,29.01,30.56,28.04-12.68,28.96-28.69l-27.33-4.05,22.01-15.52Z"/>
    </g>
    <g>
      <path class="cls-1" d="m341.25,351.6h0c-22.79-18.3-59.73-18.3-82.51,0-36.64,29.44-10.58,80.01,41.26,80.01s77.91-50.57,41.26-80.01Zm-36.9,68.44c-43.81,2.83-66.82-37.33-36.92-60.35,29.91-23.03,82.12-5.3,78.43,28.42-1.85,16.93-19.51,30.51-41.51,31.93Z"/>
      <path class="cls-1" d="m325.24,374.12c8.63,13.98-4.48,35.21-13.11,21.23-8.63-13.98,4.48-35.21,13.11-21.23Z"/>
      <path class="cls-1" d="m287.87,374.12c8.63,13.98-4.48,35.21-13.11,21.23-8.63-13.98,4.48-35.21,13.11-21.23Z"/>
    </g>
  </g>
  <path class="cls-1" d="m471.09,181.97s-26.02-61.72-86.26-30.13c-5.56-2.82-11.28-5.38-17.14-7.65-12.15-22.69-36.08-38.16-63.56-38.16-25.99,0-48.81,13.84-61.48,34.53-9.5,3.05-18.68,6.83-27.46,11.29-60.24-31.59-86.26,30.13-86.26,30.13-83.36,6.95-49.15,75-13.7,104.82-1.83,10.52-2.79,21.35-2.79,32.4,0,103.6,83.98,187.58,187.58,187.58s187.58-83.98,187.58-187.58c0-11.05-.96-21.87-2.8-32.39,35.45-29.81,69.66-97.87-13.7-104.82Zm-169.84-59.66c.95-.05,1.91-.07,2.87-.07s1.92.02,2.87.07c29.46,1.5,52.97,25.94,52.97,55.77,0,0,0,.01,0,.02,0,1.7-.08,3.37-.23,5.03-10.93-3.47-22.62-5.86-34.76-7.13-.59-1.04-1.37-2.05-2.35-3.03-4.88-4.83-10.19-4.98-18.86-.03,0,0-.02,0-.03.02l-7-7c2.21-.92,3.95.03,5.12.71l6.43-6.5c-3.91-3.18-9.43-4.64-15.92.2-.23.17-.46.35-.69.53l-3.12-3.12-3.85,3.85,3.13,3.13c-.28.36-.56.72-.81,1.09-2.13,3.15-3.12,6.7-2.52,10.04-8.49.85-16.74,2.25-24.67,4.17-.83-18.57,9.94-37.15,30.23-44.01,12.01-4.06,25.6-2.81,36.69,3.37,7.77,4.27,14.39,10.79,18.89,18.73,1.29,2.22,4.69.6,3.75-1.82-3.76-9.22-10.62-17.29-19.28-22.64-12.96-8.19-29.97-9.72-44.28-4.19-21.57,7.83-35.04,30.22-33.42,52.57-1.31.38-2.61.78-3.9,1.19-.07-.77-.14-1.54-.18-2.32-.05-.95-.07-1.91-.07-2.87s.02-1.92.07-2.87c1.45-28.51,24.39-51.45,52.9-52.9Zm-3.15,52.72c-1.33.04-2.66.09-3.98.15-.19-.14-.37-.3-.55-.48-1.1-1.09-1.89-2.88-.81-5.01l5.34,5.34Zm-162.87,18.39s25.07-53.23,65.12-33.18c1.95.98,3.93,2.12,5.95,3.46,0,0-11.02,8.35-21.7,29.43-8.18,16.14-16.16,39.74-18.85,72.79,0,0,1.26,29.96-29.02,16.7-1.09-.48-2.2-1.03-3.33-1.64-4.68-2.53-9.7-6.18-14.56-10.57-26.75-24.18-48.75-70.85,16.39-76.98Zm164.76,296.65c-94.38,0-170.88-76.5-170.88-170.88,0-7.48.49-14.84,1.42-22.07.67.33,1.34.64,1.99.93,38.08,16.68,45.93-17.93,45.93-17.93,5.38-66.18,27.44-98.07,40.57-111.47,4.86-2.62,9.87-5.01,15-7.16-1.26,5.33-1.95,10.88-1.95,16.59,0,3.79.3,7.51.86,11.14-1.42.64-2.82,1.3-4.2,1.97-4.46,2.19-6.3,7.59-4.11,12.05,1.56,3.18,4.76,5.03,8.08,5.03,1.33,0,2.69-.3,3.96-.92,18.94-9.31,42.97-14.43,67.68-14.43s46.1,4.52,64.78,13.06c4.52,2.07,9.86.08,11.93-4.44,2.07-4.52.08-9.86-4.44-11.93-.42-.19-.86-.37-1.28-.56.55-3.58.84-7.24.84-10.97,0-4.24-.39-8.39-1.1-12.43,2,.98,3.99,1.99,5.95,3.05,13.14,13.42,35.16,45.32,40.54,111.43,0,0,7.85,34.61,45.93,17.93.65-.29,1.31-.59,1.97-.92.93,7.22,1.42,14.58,1.42,22.06,0,94.38-76.5,170.88-170.88,170.88Zm181.18-219.67c-4.87,4.4-9.9,8.06-14.58,10.59-1.13.61-2.23,1.16-3.31,1.63-30.28,13.26-29.02-16.7-29.02-16.7-2.69-33.02-10.65-56.6-18.82-72.74-10.69-21.11-21.72-29.48-21.72-29.48,2.02-1.34,4-2.49,5.95-3.46,40.05-20.05,65.12,33.18,65.12,33.18,65.14,6.13,43.14,52.79,16.39,76.98Z"/>
</svg>